<mxfile host="app.diagrams.net" modified="2023-11-09T15:46:31.556Z" agent="Mozilla/5.0 (Windows NT 10.0; Win64; x64) AppleWebKit/537.36 (KHTML, like Gecko) Chrome/119.0.0.0 Safari/537.36" etag="M6mMR0AO2ieNDfOUunrk" version="22.1.0" type="github">
  <diagram name="Pagina-1" id="EockxVnbbHQsWiVnF4Md">
    <mxGraphModel dx="988" dy="544" grid="1" gridSize="10" guides="1" tooltips="1" connect="1" arrows="1" fold="1" page="1" pageScale="1" pageWidth="827" pageHeight="1169" background="#000000" math="0" shadow="0">
      <root>
        <mxCell id="0" />
        <mxCell id="1" parent="0" />
        <mxCell id="Qs9AMObHrChrNmR5h-xX-29" value="" style="rounded=0;whiteSpace=wrap;html=1;fillColor=#1F1F1F;strokeColor=#303030;" vertex="1" parent="1">
          <mxGeometry x="240" y="480" width="440" height="120" as="geometry" />
        </mxCell>
        <mxCell id="Qs9AMObHrChrNmR5h-xX-5" value="Connector A&#xa;(Acting as Data Provider)" style="group;fontColor=#FFFFFF;" vertex="1" connectable="0" parent="1">
          <mxGeometry x="200" y="320" width="160" height="80" as="geometry" />
        </mxCell>
        <mxCell id="Qs9AMObHrChrNmR5h-xX-6" value="" style="group" vertex="1" connectable="0" parent="Qs9AMObHrChrNmR5h-xX-5">
          <mxGeometry width="160" height="80" as="geometry" />
        </mxCell>
        <mxCell id="Qs9AMObHrChrNmR5h-xX-7" value="&lt;font color=&quot;#ffffff&quot;&gt;&lt;b&gt;Connector A&lt;br style=&quot;border-color: var(--border-color); padding: 0px; margin: 0px;&quot;&gt;&lt;/b&gt;&lt;font style=&quot;font-size: 9px;&quot;&gt;(Acting as Data Provider)&lt;/font&gt;&lt;/font&gt;" style="rounded=0;whiteSpace=wrap;html=1;fillColor=#003000;strokeColor=#005000;" vertex="1" parent="Qs9AMObHrChrNmR5h-xX-6">
          <mxGeometry width="160" height="80" as="geometry" />
        </mxCell>
        <mxCell id="Qs9AMObHrChrNmR5h-xX-8" value="" style="verticalLabelPosition=bottom;html=1;verticalAlign=top;align=center;strokeColor=none;fillColor=#00BEF2;shape=mxgraph.azure.certificate;pointerEvents=1;" vertex="1" parent="Qs9AMObHrChrNmR5h-xX-6">
          <mxGeometry x="10" y="60" width="25" height="20" as="geometry" />
        </mxCell>
        <mxCell id="Qs9AMObHrChrNmR5h-xX-13" value="" style="group" vertex="1" connectable="0" parent="1">
          <mxGeometry x="560" y="320" width="160" height="80" as="geometry" />
        </mxCell>
        <mxCell id="Qs9AMObHrChrNmR5h-xX-14" value="" style="group" vertex="1" connectable="0" parent="Qs9AMObHrChrNmR5h-xX-13">
          <mxGeometry width="160" height="80" as="geometry" />
        </mxCell>
        <mxCell id="Qs9AMObHrChrNmR5h-xX-15" value="&lt;font color=&quot;#ffffff&quot;&gt;&lt;b&gt;Connector B&lt;/b&gt;&lt;br style=&quot;border-color: var(--border-color); padding: 0px; margin: 0px;&quot;&gt;&lt;font style=&quot;font-size: 9px;&quot;&gt;(Acting as Data Consumer)&lt;/font&gt;&lt;/font&gt;" style="rounded=0;whiteSpace=wrap;html=1;fillColor=#003000;strokeColor=#005000;" vertex="1" parent="Qs9AMObHrChrNmR5h-xX-14">
          <mxGeometry width="160" height="80" as="geometry" />
        </mxCell>
        <mxCell id="Qs9AMObHrChrNmR5h-xX-16" value="" style="verticalLabelPosition=bottom;html=1;verticalAlign=top;align=center;strokeColor=none;fillColor=#00BEF2;shape=mxgraph.azure.certificate;pointerEvents=1;" vertex="1" parent="Qs9AMObHrChrNmR5h-xX-14">
          <mxGeometry x="10" y="60" width="25" height="20" as="geometry" />
        </mxCell>
        <mxCell id="Qs9AMObHrChrNmR5h-xX-25" value="" style="group;fontStyle=1" vertex="1" connectable="0" parent="1">
          <mxGeometry x="500" y="500" width="160" height="80" as="geometry" />
        </mxCell>
        <mxCell id="Qs9AMObHrChrNmR5h-xX-26" value="za" style="group" vertex="1" connectable="0" parent="Qs9AMObHrChrNmR5h-xX-25">
          <mxGeometry width="160" height="80" as="geometry" />
        </mxCell>
        <mxCell id="Qs9AMObHrChrNmR5h-xX-27" value="&lt;b&gt;Certificate Authority&lt;/b&gt;" style="rounded=0;whiteSpace=wrap;html=1;fillColor=#003000;strokeColor=#005000;fontColor=#FFFFFF;" vertex="1" parent="Qs9AMObHrChrNmR5h-xX-26">
          <mxGeometry width="160" height="80" as="geometry" />
        </mxCell>
        <mxCell id="Qs9AMObHrChrNmR5h-xX-28" value="" style="verticalLabelPosition=bottom;html=1;verticalAlign=top;align=center;strokeColor=none;fillColor=#00BEF2;shape=mxgraph.azure.certificate;pointerEvents=1;" vertex="1" parent="Qs9AMObHrChrNmR5h-xX-26">
          <mxGeometry x="10" y="60" width="25" height="20" as="geometry" />
        </mxCell>
        <mxCell id="Qs9AMObHrChrNmR5h-xX-32" value="&lt;font color=&quot;#ffffff&quot;&gt;&lt;b&gt;DAPS&lt;/b&gt;&lt;/font&gt;" style="rounded=0;whiteSpace=wrap;html=1;fillColor=#003000;strokeColor=#005000;" vertex="1" parent="1">
          <mxGeometry x="260" y="500" width="160" height="80" as="geometry" />
        </mxCell>
        <mxCell id="Qs9AMObHrChrNmR5h-xX-33" value="" style="verticalLabelPosition=bottom;html=1;verticalAlign=top;align=center;strokeColor=none;fillColor=#00BEF2;shape=mxgraph.azure.certificate;pointerEvents=1;" vertex="1" parent="1">
          <mxGeometry x="270" y="560" width="25" height="20" as="geometry" />
        </mxCell>
        <mxCell id="Qs9AMObHrChrNmR5h-xX-37" value="provides DAT" style="endArrow=classic;html=1;rounded=0;exitX=0;exitY=0.5;exitDx=0;exitDy=0;entryX=0;entryY=0.5;entryDx=0;entryDy=0;strokeColor=#FFFFFF;verticalAlign=bottom;labelBackgroundColor=none;fontColor=#FFFFFF;" edge="1" parent="1" source="Qs9AMObHrChrNmR5h-xX-32" target="Qs9AMObHrChrNmR5h-xX-7">
          <mxGeometry x="-0.625" width="50" height="50" relative="1" as="geometry">
            <mxPoint x="540" y="520" as="sourcePoint" />
            <mxPoint x="590" y="470" as="targetPoint" />
            <Array as="points">
              <mxPoint x="160" y="540" />
              <mxPoint x="160" y="360" />
            </Array>
            <mxPoint as="offset" />
          </mxGeometry>
        </mxCell>
        <mxCell id="Qs9AMObHrChrNmR5h-xX-38" value="Provides DAT" style="endArrow=classic;html=1;rounded=0;exitX=0.75;exitY=1;exitDx=0;exitDy=0;strokeColor=#FFFFFF;labelBackgroundColor=none;fontColor=#FFFFFF;verticalAlign=bottom;" edge="1" parent="1" source="Qs9AMObHrChrNmR5h-xX-32">
          <mxGeometry x="-0.7059" width="50" height="50" relative="1" as="geometry">
            <mxPoint x="540" y="520" as="sourcePoint" />
            <mxPoint x="720" y="360" as="targetPoint" />
            <Array as="points">
              <mxPoint x="380" y="620" />
              <mxPoint x="740" y="620" />
              <mxPoint x="740" y="360" />
            </Array>
            <mxPoint as="offset" />
          </mxGeometry>
        </mxCell>
        <mxCell id="Qs9AMObHrChrNmR5h-xX-39" value="issues certificate" style="endArrow=classic;html=1;rounded=0;entryX=0.25;entryY=1;entryDx=0;entryDy=0;strokeColor=#FFFFFF;verticalAlign=bottom;labelBackgroundColor=none;fontColor=#FFFFFF;" edge="1" parent="1" target="Qs9AMObHrChrNmR5h-xX-7">
          <mxGeometry x="0.3684" width="50" height="50" relative="1" as="geometry">
            <mxPoint x="520" y="500" as="sourcePoint" />
            <mxPoint x="590" y="470" as="targetPoint" />
            <Array as="points">
              <mxPoint x="520" y="440" />
              <mxPoint x="240" y="440" />
            </Array>
            <mxPoint as="offset" />
          </mxGeometry>
        </mxCell>
        <mxCell id="Qs9AMObHrChrNmR5h-xX-41" value="issues certificate" style="endArrow=classic;html=1;rounded=0;labelBackgroundColor=none;strokeColor=#FFFFFF;align=center;verticalAlign=top;fontFamily=Helvetica;fontSize=11;fontColor=#FFFFFF;shape=connector;exitX=0.25;exitY=0;exitDx=0;exitDy=0;" edge="1" parent="1" source="Qs9AMObHrChrNmR5h-xX-27">
          <mxGeometry x="0.5" width="50" height="50" relative="1" as="geometry">
            <mxPoint x="540" y="520" as="sourcePoint" />
            <mxPoint x="600" y="400" as="targetPoint" />
            <Array as="points">
              <mxPoint x="540" y="440" />
              <mxPoint x="600" y="440" />
            </Array>
            <mxPoint as="offset" />
          </mxGeometry>
        </mxCell>
        <mxCell id="Qs9AMObHrChrNmR5h-xX-42" value="&lt;font style=&quot;font-size: 9px;&quot;&gt;Provide data to Connector B on request&lt;/font&gt;" style="edgeStyle=none;shape=connector;rounded=0;orthogonalLoop=1;jettySize=auto;html=1;entryX=0;entryY=0.5;entryDx=0;entryDy=0;labelBackgroundColor=none;strokeColor=#FFFFFF;align=center;verticalAlign=bottom;fontFamily=Helvetica;fontSize=11;fontColor=#FFFFFF;endArrow=classic;" edge="1" parent="1" source="Qs9AMObHrChrNmR5h-xX-7" target="Qs9AMObHrChrNmR5h-xX-15">
          <mxGeometry relative="1" as="geometry" />
        </mxCell>
        <mxCell id="Qs9AMObHrChrNmR5h-xX-43" value="&lt;font style=&quot;font-size: 9px;&quot;&gt;Request data from Connector A on request&lt;/font&gt;" style="edgeStyle=none;shape=connector;rounded=0;orthogonalLoop=1;jettySize=auto;html=1;entryX=0.5;entryY=0;entryDx=0;entryDy=0;labelBackgroundColor=none;strokeColor=#FFFFFF;align=center;verticalAlign=bottom;fontFamily=Helvetica;fontSize=11;fontColor=#FFFFFF;endArrow=classic;" edge="1" parent="1" source="Qs9AMObHrChrNmR5h-xX-15" target="Qs9AMObHrChrNmR5h-xX-7">
          <mxGeometry relative="1" as="geometry">
            <Array as="points">
              <mxPoint x="640" y="300" />
              <mxPoint x="280" y="300" />
            </Array>
          </mxGeometry>
        </mxCell>
      </root>
    </mxGraphModel>
  </diagram>
</mxfile>
